<?xml version="1.0" encoding="utf-8"?>
<!-- Generator: Adobe Illustrator 22.0.0, SVG Export Plug-In . SVG Version: 6.00 Build 0)  -->
<svg version="1.1" id="Camada_1" xmlns="http://www.w3.org/2000/svg" xmlns:xlink="http://www.w3.org/1999/xlink" x="0px" y="0px"
	 viewBox="0 0 590 590" style="enable-background:new 0 0 590 590;" xml:space="preserve">
<style type="text/css">
	.st0{fill:#08466B;}
	.st1{fill:#9FA2A4;}
	.st2{font-family:'MyriadPro-Regular';}
	.st3{font-size:82.796px;}
</style>
<path class="st0" d="M460.2,243.3c20.1-30.4,20.6-54.5,2.1-73.8c-18.5-19.3-44.8-19.2-74.5,0.3c-24.7-18.6-47.6,1.1-59.2,52.2
	c-14.9,0-30.1,0-47.4,0c0.2-41.7,17.8-73.9,51.6-97.1c38.9-26.7,80.7-29.1,122.3-7.9c40.7,20.7,62,56.1,68.3,100.9
	c0.7,5,0.6,10.5-0.6,15.5c-3.6,14.8-12.7,25-27.5,29.5C477.9,268.1,470,255.5,460.2,243.3z"/>
<path class="st1" d="M220,286.9c26.6,15.4,46.9-2.1,60.8-53.3c14.3-2.6,28.9-1.7,46-0.6c0.5,41.8-17.3,73.3-49.5,96.3
	c-37.4,26.7-78.7,30.9-120.1,11C114.7,320,90.4,285,86,237.4c-1.8-19.6,4-35.2,23.5-43.3c19.4-8.1,28.4,5.7,38.2,17.7
	c-20.5,35.5-20.7,54-0.7,74.5C165,304.8,189.6,305,220,286.9z"/>
<path class="st1" d="M224.6,236c-1.8,8.1-3,16.2-5.4,23.8c-5.4,17.2-17,28.6-35.1,29.5c-18.3,0.9-31.3-9.1-37.4-26.2
	c-5.8-16.4-1.6-31.2,12.6-41.6c14.8-10.7,30.4-10.7,45.5,0.1C211.4,226.4,217.9,231.2,224.6,236z"/>
<path class="st0" d="M382.1,220c9.1-18.5,5.8-42.5,28.2-49.3c10.5-3.2,23.2-5.1,34.5,0.4c17,8.2,24.7,32.8,15.4,49.9
	c-8.2,15-21.2,22-38.5,20.6C405.6,240.1,397.4,225.5,382.1,220z"/>
<text transform="matrix(1 0 0 1 79.6946 463.2744)" class="st1 st2 st3">Flexpay.click</text>
</svg>
