<svg xmlns="http://www.w3.org/2000/svg" xmlns:xlink="http://www.w3.org/1999/xlink" viewBox="0 0 50 50"><defs><style>.cls-1{fill:none;}.cls-2{clip-path:url(#clip-path);}.cls-3{fill:#fff;}</style><clipPath id="clip-path" transform="translate(0 0)"><rect class="cls-1" width="50" height="50"/></clipPath></defs><title>waxex</title><g id="Layer_2" data-name="Layer 2"><g id="Layer_4" data-name="Layer 4"><g id="border"><g id="Artwork_8" data-name="Artwork 8"><g class="cls-2"><g class="cls-2"><path class="cls-3" d="M25,2.72A22.28,22.28,0,1,1,2.72,25,22.31,22.31,0,0,1,25,2.72M25,0A25,25,0,1,0,50,25,25,25,0,0,0,25,0" transform="translate(0 0)"/></g><path class="cls-3" d="M9,26.38l1.39-4.86h1.1l1.4,4.86.94-4.86h1.41l-1.68,7.29H12.26L11,23.71l-1.35,5.1H8.32L6.64,21.52H8.05Z" transform="translate(0 0)"/><path class="cls-3" d="M15.9,28.81l2.79-7.29h.87l2.79,7.29H21l-1.87-5.23-1.87,5.23Zm1.34-1.17V26.37h3.84v1.27Z" transform="translate(0 0)"/><path class="cls-3" d="M23.47,28.81l2.63-4.49,1.64-2.8h1.45l-2.42,4.12-1.85,3.17Zm4.38,0-1.77-3-.14-.23-2.41-4.07H25l1.63,2.76.19.32,2.49,4.21Z" transform="translate(0 0)"/><path class="cls-3" d="M31.11,28.81V21.52h1.38v7.29Zm.5-6V21.52H36v1.32Zm0,3V24.52h3.84v1.33Zm0,3V27.53H36v1.28Z" transform="translate(0 0)"/><path class="cls-3" d="M37.48,28.81l2.62-4.49,1.64-2.8h1.45l-2.41,4.12-1.85,3.17Zm4.37,0-1.76-3L40,25.59l-2.41-4.07H39l1.63,2.76.19.32,2.49,4.21Z" transform="translate(0 0)"/></g></g></g></g></g></svg>