<svg xmlns="http://www.w3.org/2000/svg" viewBox="0 0 50 50"><defs><style>.cls-1{fill:#f5f5f5;}</style></defs><title>waxexflat</title><g id="Layer_2" data-name="Layer 2"><g id="Layer_4" data-name="Layer 4"><g id="border"><path class="cls-1" d="M25,50A25,25,0,1,0,0,25,25,25,0,0,0,25,50ZM37.56,21.52H39l1.39,2.34,1.37-2.34h1.45l-2.1,3.57,2.21,3.72H41.88L40.4,26.32,39,28.81H37.5l2.18-3.72Zm-6.42,0H36v1.32H32.51v1.68h3v1.33h-3v1.68H36v1.28H31.14Zm-7.6,0H25l1.39,2.34,1.37-2.34H29.2l-2.1,3.57,2.21,3.72H27.86l-1.47-2.49-1.46,2.49H23.48l2.18-3.72Zm-4.85,0h.88l2.78,7.29H21l-.42-1.17h-2.9l-.42,1.17H15.91Zm-10.64,0L9,26.38l1.39-4.86h1.1l1.4,4.86.94-4.86h1.41l-1.68,7.29H12.26L11,23.71l-1.35,5.1H8.32L6.64,21.52Z"/><polygon class="cls-1" points="19.13 23.58 18.13 26.36 20.13 26.36 19.13 23.58"/></g></g></g></svg>